<?xml version="1.0" encoding="utf-8"?>
<!-- Generator: Adobe Illustrator 27.4.1, SVG Export Plug-In . SVG Version: 6.00 Build 0)  -->
<svg version="1.1" id="Layer_1" xmlns="http://www.w3.org/2000/svg" xmlns:xlink="http://www.w3.org/1999/xlink" x="0px" y="0px"
	 viewBox="0 0 48 48" style="enable-background:new 0 0 48 48;" xml:space="preserve">
<style type="text/css">
	.st0{fill:#FFFFFF;}
</style>
<path class="st0" d="M24,4C13,4,4,13,4,24s9,20,20,20s20-9,20-20c0-2.3-0.4-4.4-1.1-6.4l-3.2,3.2c0.2,1,0.3,2.1,0.3,3.2
	c0,8.8-7.2,16-16,16S8,32.8,8,24S15.2,8,24,8c3.3,0,6.3,1,8.8,2.7l2.9-2.9C32.4,5.4,28.4,4,24,4z M42.6,6.6L22,27.2l-6.6-6.6
	l-2.8,2.8l9.4,9.4L45.4,9.4L42.6,6.6z"/>
</svg>
